<?xml version="1.0" standalone="no"?>
<!DOCTYPE svg PUBLIC "-//W3C//DTD SVG 20010904//EN"
 "http://www.w3.org/TR/2001/REC-SVG-20010904/DTD/svg10.dtd">
<svg version="1.0" xmlns="http://www.w3.org/2000/svg"
 width="944.000000pt" height="839.000000pt" viewBox="0 0 944.000000 839.000000"
 preserveAspectRatio="xMidYMid meet">

<g transform="translate(0.000000,839.000000) scale(0.100000,-0.100000)"
fill="#000000" stroke="none">
<path d="M0 4195 l0 -4195 4720 0 4720 0 0 4195 0 4195 -4720 0 -4720 0 0
-4195z m4739 2416 c2854 1 2725 2 2841 -12 351 -41 700 -220 952 -488 251
-267 398 -571 464 -961 11 -69 14 -223 14 -810 -1 -399 -3 -747 -5 -775 -2
-27 -9 -113 -16 -190 -15 -199 -34 -315 -80 -515 -90 -383 -194 -604 -388
-827 -229 -262 -526 -421 -893 -479 -126 -20 -423 -14 -531 10 -214 49 -481
176 -661 314 -87 67 -235 202 -339 310 l-90 92 -1311 0 -1311 -1 -45 -60 c-56
-76 -211 -231 -309 -311 -159 -130 -384 -250 -565 -303 -487 -140 -931 -70
-1331 213 -97 68 -264 229 -333 321 -170 225 -274 565 -331 1076 -6 55 -16
129 -21 165 -5 36 -12 90 -15 120 -8 75 -7 1581 1 1644 11 94 83 362 119 447
77 179 193 369 314 511 77 92 225 222 326 286 138 89 367 175 535 202 76 12
414 30 439 23 7 -2 1164 -3 2570 -2z"/>
<path d="M1889 6283 c-144 -16 -283 -59 -423 -131 -217 -111 -421 -321 -536
-551 -45 -90 -106 -279 -126 -391 -21 -117 -22 -263 -13 -1185 5 -545 10 -721
23 -835 57 -497 151 -749 360 -969 165 -172 364 -281 607 -332 135 -28 320
-30 433 -5 326 72 556 215 878 545 121 123 155 152 188 161 48 13 2801 12
2859 -1 26 -6 69 -43 188 -164 293 -297 528 -449 814 -527 72 -20 107 -23 249
-23 171 0 247 11 390 57 144 46 299 139 415 250 255 241 376 536 443 1073 15
123 17 246 17 1020 0 879 0 880 -23 983 -59 266 -171 473 -356 658 -145 143
-296 235 -503 305 -62 20 -145 43 -185 49 -53 8 -857 12 -2879 13 -1543 1
-2812 1 -2820 0z m3036 -257 c2335 -2 2617 -4 2680 -19 282 -63 485 -206 615
-432 46 -82 115 -234 108 -241 -7 -6 -159 85 -273 164 -278 193 -484 284 -751
332 -82 14 -352 15 -489 0 -60 -6 -146 -20 -190 -31 -77 -20 -112 -21 -1445
-24 -751 -2 -1581 0 -1845 4 -472 7 -482 8 -620 36 -121 24 -164 28 -325 29
-405 2 -612 -71 -1068 -377 -127 -85 -232 -154 -232 -151 0 16 58 153 91 214
95 176 223 309 370 385 107 55 180 81 268 96 88 15 338 27 426 22 39 -3 1245
-6 2680 -7z m968 -473 l119 -4 -6 -24 c-3 -13 -28 -64 -54 -112 l-47 -88
-1186 -3 -1185 -2 -26 27 c-14 16 -48 66 -77 113 l-52 85 138 5 c161 6 2202 8
2376 3z m1265 -345 c55 -28 110 -90 118 -136 10 -51 -2 -134 -25 -180 -49 -97
-184 -146 -303 -110 -51 15 -134 89 -146 131 -21 67 -23 108 -8 160 22 76 78
124 176 151 67 19 128 14 188 -16z m-4713 -121 l35 -35 0 -176 c0 -202 6 -225
68 -274 l40 -32 186 0 c198 0 220 -4 261 -50 17 -19 20 -39 23 -154 l4 -132
-36 -32 -37 -32 -209 0 -208 0 -31 -26 c-52 -43 -56 -58 -61 -231 -4 -144 -7
-165 -26 -190 l-21 -28 -135 -3 -135 -3 -32 36 -31 36 0 174 0 174 -37 30 -38
31 -183 0 c-204 0 -226 5 -258 65 -13 25 -16 52 -12 145 4 121 10 140 56 175
25 19 40 20 203 17 264 -5 268 -1 270 260 2 183 4 202 37 243 25 32 51 38 195
43 77 3 78 3 112 -31z m3076 -3 c3 -2 12 -24 19 -49 11 -38 10 -48 -3 -68 -8
-13 -20 -41 -26 -63 -6 -21 -19 -53 -30 -70 l-19 -30 -679 -2 -680 -1 -22 23
c-54 57 -20 178 68 244 l44 33 661 -6 c364 -4 664 -9 667 -11z m801 -377 c94
-55 129 -119 130 -232 0 -109 -41 -174 -141 -226 -121 -62 -306 14 -357 147
-21 56 -15 154 14 211 61 119 237 169 354 100z m1663 -31 c21 -11 53 -41 70
-64 28 -41 30 -50 30 -130 0 -130 -37 -202 -125 -247 -101 -51 -210 -27 -293
65 -79 87 -84 187 -17 293 65 103 225 142 335 83z m-2658 -71 c51 -32 72 -145
33 -180 -19 -17 -45 -19 -303 -21 -155 -2 -455 -5 -667 -8 -362 -4 -388 -4
-428 14 -32 14 -42 25 -42 42 0 37 20 100 45 143 l23 40 653 -5 c630 -5 655
-6 686 -25z m1819 -514 c67 -32 119 -86 134 -141 15 -54 11 -131 -9 -175 -54
-118 -158 -172 -284 -145 -46 9 -68 21 -113 63 -77 70 -102 141 -84 239 16 85
65 136 164 170 73 25 121 23 192 -11z m-2989 -267 c42 -27 50 -65 48 -241 -3
-194 -9 -212 -100 -258 l-59 -30 -240 0 c-267 0 -288 4 -342 68 l-27 32 5 151
c4 131 8 157 27 198 37 75 74 89 256 96 235 9 404 3 432 -16z m1707 1 c66 -31
96 -132 96 -320 0 -122 -16 -155 -88 -188 -43 -19 -64 -21 -262 -22 -225 0
-281 8 -347 47 -64 38 -73 67 -73 241 0 163 7 201 43 226 39 29 50 30 325 30
227 1 280 -2 306 -14z"/>
</g>
</svg>
